<svg xmlns="http://www.w3.org/2000/svg" fill="none" viewBox="0 0 214 36"><path fill="#fff" d="M64.199 5.35c.05.05.05.05.099.05-.05 0-.05-.05-.099-.05zm2.61 18.45c-1.871 3.5-4.53 6.15-7.535 7.4-1.33.65-2.71.95-4.04.95a8.322 8.322 0 0 1-3.3-.7c-.295-.15-.64-.35-1.034-.55l-.197-.2c-4.778-3.25-5.763-11.55-2.118-18.4 1.823-3.5 4.482-6.15 7.536-7.45 1.38-.65 2.71-.95 4.04-.95 1.181 0 2.314.25 3.3.7l.787.45c.05 0 .099.05.099.05l.148.05.197.2c2.807 1.9 4.383 5.6 4.334 9.95l2.906.05c-.69-4.6-3.201-8.6-6.846-11l-.05-.05c-.049 0-.049-.05-.098-.05l-.099-.05c-2.167-1.4-4.63-2.1-7.142-2.1-7.979 0-14.431 7.15-14.431 15.95 0 5.15 2.216 9.95 6.009 12.9.345.3.541.45.788.6.246.2.443.3.64.45.296.15.591.35.887.45 1.92 1 3.99 1.5 6.107 1.5 6.798 0 12.708-5.25 14.137-12.55l-4.04.1c-.295.8-.64 1.6-.984 2.3zM77.757 34V2.05h-3.054V34h3.054zM94.234 17.9c5.566-.35 9.703-4.1 9.703-8.2 0-5.4-6.255-7.65-12.116-7.65h-9.999V33.9h3.25V18.05c7.192 0 15.27.2 15.27 15.7v.15h3.595v-.05c0-8.3-2.955-13.85-9.703-15.95zm-9.161-.9V3.15h8.52c2.71.1 5.222 1.35 6.207 3.75 1.478 3.5-.542 7.65-4.482 9.4-1.034.45-2.167.65-3.202.7h-7.043zM126.826 5.35c.049.05.049.05.099.05-.05 0-.05-.05-.099-.05zm2.611 18.45c-1.872 3.5-4.532 6.15-7.536 7.4-1.33.65-2.709.95-4.039.95a8.32 8.32 0 0 1-3.3-.7c-.296-.15-.641-.35-1.035-.55l-.197-.2c-4.778-3.25-5.763-11.55-2.118-18.4 1.823-3.5 4.482-6.15 7.536-7.45 1.379-.65 2.709-.95 4.039-.95 1.182 0 2.315.25 3.3.7l.788.45c.05 0 .099.05.099.05l.148.05.197.2c2.807 1.9 4.383 5.6 4.334 9.95l2.906.05c-.689-4.6-3.201-8.6-6.846-11l-.05-.05c-.049 0-.049-.05-.098-.05l-.099-.05c-2.167-1.4-4.63-2.1-7.142-2.1-7.979 0-14.431 7.15-14.431 15.95 0 5.15 2.216 9.95 6.009 12.9.345.3.542.45.788.6.246.2.443.3.64.45.296.15.591.35.887.45 1.921 1 3.989 1.5 6.107 1.5 6.798 0 12.708-5.25 14.137-12.55l-4.039.1c-.296.8-.641 1.6-.985 2.3zM159.84 3.25V2.1h-22.51v31.85h22.51v-1.2h-19.505V18.7h17.633v-1.3h-17.633V3.25h19.505z"/><path fill="#fff" d="M185.003 2l-10.639 17.5v.05l-.049-.05L163.725 2h-3.94l12.313 18.6v13.35h3.054V20.6L187.466 2h-2.463zM200.262 2.05h-4.285l-12.954 31.9h2.709l4.285-11.55h14.629l4.285 11.55h4.335l-13.004-31.9zM190.51 21.1l6.846-18.35 6.797 18.35H190.51z"/><path stroke="#fff" stroke-width="2" d="M22.565 23.98a6.456 6.456 0 1 1-9.13 9.13 6.456 6.456 0 0 1 9.13-9.13zm10.544-1.415a6.456 6.456 0 1 1-9.13-9.13 6.456 6.456 0 0 1 9.13 9.13zM22.565 2.891a6.456 6.456 0 1 1-9.13 9.13 6.456 6.456 0 0 1 9.13-9.13zM12.021 13.435a6.456 6.456 0 1 1-9.13 9.13 6.456 6.456 0 0 1 9.13-9.13z"/></svg>